PathFileType	4	(X/Y/Z)	Run_500 01
DataRate	CameraRate	NumFrames	NumMarkers	Units	OrigDataRate	OrigDataStartFrame	OrigNumFrames
120	120	4	42	mm	120	413	128
Frame#	Time	LASI			RASI			LPSI			RPSI			RTH1			RTH2			RTH3			LTH1			LTH2			LTH3			RTB1			RTB2			LTB1			LTB2			LTB3			RCAL			RTOE			RMT5			LCAL			LTOE			LMT5			LACR			RACR			CLAV			C7			RUA1			RUA2			RUA3			RLEL			LUA1			LUA2			LUA3			LLEL			LMEL			RFAsuperior			RFAradius			RFAulna			LFAsuperior			LFAradius			LFAulna			RMEL			RTB3		
		X1	Y1	Z1	X2	Y2	Z2	X3	Y3	Z3	X4	Y4	Z4	X5	Y5	Z5	X6	Y6	Z6	X7	Y7	Z7	X8	Y8	Z8	X9	Y9	Z9	X10	Y10	Z10	X11	Y11	Z11	X12	Y12	Z12	X13	Y13	Z13	X14	Y14	Z14	X15	Y15	Z15	X16	Y16	Z16	X17	Y17	Z17	X18	Y18	Z18	X19	Y19	Z19	X20	Y20	Z20	X21	Y21	Z21	X22	Y22	Z22	X23	Y23	Z23	X24	Y24	Z24	X25	Y25	Z25	X26	Y26	Z26	X27	Y27	Z27	X28	Y28	Z28	X29	Y29	Z29	X30	Y30	Z30	X31	Y31	Z31	X32	Y32	Z32	X33	Y33	Z33	X34	Y34	Z34	X35	Y35	Z35	X36	Y36	Z36	X37	Y37	Z37	X38	Y38	Z38	X39	Y39	Z39	X40	Y40	Z40	X41	Y41	Z41	X42	Y42	Z42	

413	  3.441667	1174.538664	988.190334	-414.440084	1144.823549	1008.218077	-178.968029	1002.185106	1029.299235	-378.084642	988.919426	1031.027379	-280.863237	1119.164483	850.595250	-134.116561	1237.321380	730.510448	-159.418368	1207.698965	626.517800	-182.092089	1090.321430	812.669472	-476.949891	1149.259124	707.783218	-456.810737	1064.675575	598.350010	-438.655617	1308.146057	410.120994	-251.773253	1256.865526	349.123322	-198.159386	946.822847	482.661571	-395.595784	879.527815	574.223462	-442.496036	774.882036	585.953207	-383.332201	1150.654093	100.387694	-300.666202	1362.790603	 76.499536	-321.471664	1343.576410	 40.038740	-219.123697	733.968513	738.833625	-370.962482	593.222330	585.801552	-346.747260	576.081590	618.958184	-448.608178	1177.248182	1482.628537	-460.563094	1109.290548	1452.244227	-103.447529	1206.046894	1419.793044	-245.310657	1104.265241	1510.450765	-293.490197	1052.550412	1388.457956	-65.855079	1033.672144	1301.320486	-80.657149	950.389423	1328.885104	-97.356158	885.475733	1235.554451	-81.528821	1144.939952	1420.459473	-522.849792	1068.974277	1385.873918	-515.400871	1116.567672	1321.912182	-555.526647	1032.299612	1246.909244	-604.969316	984.365157	1252.038196	-548.045382	949.574431	1172.271116	-47.233555	1061.327387	1023.792638	-48.904624	1006.413462	988.274120	-66.921841	1101.324679	1204.769183	-578.126058	1219.155009	1110.579024	-452.436952	1188.534614	1058.895585	-485.097190	893.882126	1231.738087	-148.946113	1282.464464	230.250816	-267.870955	
414	  3.450000	1171.537430	980.682465	-413.945181	1143.374472	999.510585	-178.927873	999.213005	1021.396078	-376.897784	987.126494	1025.273376	-277.612723	1116.624156	840.150428	-133.926549	1232.047619	719.356341	-161.059486	1202.879458	615.574035	-184.361431	1093.585259	804.847930	-477.699170	1158.404443	701.676354	-459.751978	1079.437379	590.331882	-444.541818	1291.139503	397.830781	-258.239523	1236.832438	341.295740	-203.487749	967.908869	479.092799	-399.653597	903.012366	572.614141	-445.790783	799.361354	588.202654	-385.712924	1106.670869	 94.649913	-304.990376	1320.079639	 75.094877	-324.354079	1300.935413	 42.603132	-219.576689	762.031255	743.309198	-372.841783	617.851760	592.987821	-351.132561	605.396235	624.393963	-454.290172	1171.763200	1475.467284	-461.071621	1111.461730	1443.355682	-101.672622	1205.909046	1411.943899	-246.368141	1102.231293	1502.928209	-291.955259	1056.751409	1375.704305	-62.792236	1040.581686	1288.193969	-77.462925	955.208974	1312.228981	-88.645590	894.016037	1218.308355	-73.117737	1137.685460	1413.266870	-522.933820	1061.761698	1379.801989	-513.515929	1107.630541	1314.518071	-554.214423	1020.739110	1242.439737	-602.910678	975.377788	1247.363350	-544.406931	962.207315	1156.276385	-43.022126	1076.742032	1012.277904	-50.576564	1021.294226	974.879408	-66.040759	1087.848213	1194.652987	-579.908854	1202.309642	1085.857444	-462.880656	1167.165248	1038.283568	-496.736460	899.195689	1215.100687	-140.703183	1249.502343	220.928788	-275.007561	
415	  3.458333	1168.107602	973.305118	-413.507190	1141.420565	990.485441	-179.183612	995.971117	1014.816505	-375.128945	984.901366	1020.342592	-273.939274	1111.507339	830.036757	-133.934654	1225.125671	708.731760	-161.880261	1196.311759	605.213207	-187.447010	1097.374486	797.659643	-478.191199	1168.524630	696.575220	-462.292524	1096.462388	582.233647	-450.393071	1271.824419	387.324736	-265.851634	1214.518800	335.123197	-209.706445	990.747982	475.963820	-402.352793	927.043350	569.193761	-449.032962	824.687325	588.243308	-388.129746	1064.056685	 91.810908	-310.397329	1278.351529	 74.548797	-327.631582	1258.439875	 45.167001	-221.276747	788.723598	745.123592	-375.064534	643.131305	595.948795	-354.929669	634.121103	625.426182	-459.129706	1165.681917	1468.651500	-461.624855	1114.018844	1434.997366	-99.819275	1205.914958	1404.526467	-247.709883	1100.107522	1495.649515	-290.456703	1062.328201	1362.840941	-59.600686	1048.523071	1275.431031	-74.643329	961.762655	1295.796813	-79.504036	904.246474	1200.902570	-64.361826	1129.779798	1406.260485	-522.918185	1054.218122	1373.403342	-511.540378	1098.551630	1307.216104	-552.903462	1009.178049	1237.704370	-600.606682	966.492869	1242.179167	-540.607292	976.975544	1140.883665	-39.444729	1093.639245	1001.957120	-52.737671	1038.020190	962.530164	-65.708046	1073.931810	1184.577675	-581.806785	1184.288840	1062.220615	-472.764900	1144.454348	1019.560807	-508.292578	906.156159	1197.863686	-131.986560	1216.533318	214.534146	-281.881796	
416	  3.466667	1164.391794	966.504584	-413.410550	1138.871402	981.822195	-179.555503	992.437035	1009.717252	-372.972729	982.020404	1015.864517	-270.824697	1103.686262	821.585183	-134.556019	1216.267599	699.332224	-162.850480	1186.749018	596.324162	-191.064489	1101.421642	791.541638	-478.321513	1179.680587	693.529976	-464.401203	1115.857411	575.058266	-455.536660	1250.602304	378.622348	-273.137655	1190.447387	330.051167	-215.881075	1015.295425	473.681675	-404.354421	951.783026	565.004045	-452.360012	850.500073	586.322131	-390.748438	1023.781939	 91.535972	-315.972403	1238.353307	 73.248730	-330.837300	1217.078165	 46.695050	-223.746300	813.001449	744.547174	-377.280813	668.734241	593.983601	-358.401486	661.584166	622.097396	-463.240233	1159.187523	1462.430055	-462.170128	1116.930256	1427.443596	-97.984325	1205.981015	1397.915085	-249.307125	1097.950021	1489.014812	-288.998343	1069.638874	1350.355162	-56.627689	1057.430983	1263.453585	-72.546534	970.170733	1280.591152	-70.356319	916.269167	1183.941533	-55.577998	1121.423546	1399.776824	-522.728944	1046.279971	1366.879679	-509.374894	1089.182365	1300.607449	-551.701947	997.498414	1233.004884	-598.119011	957.336530	1236.951049	-536.933342	993.460540	1126.946589	-36.510531	1112.051307	993.586819	-55.452430	1056.906528	951.992872	-66.179531	1059.669575	1175.308273	-583.638175	1165.368366	1040.574405	-482.185176	1120.919992	1003.473502	-519.583823	915.114627	1180.750375	-123.153145	1184.263492	210.190098	-287.784015	
